<mxfile host="app.diagrams.net" modified="2023-06-02T07:17:39.021Z" agent="Mozilla/5.0 (Windows NT 10.0; Win64; x64) AppleWebKit/537.36 (KHTML, like Gecko) Chrome/113.0.0.0 Safari/537.36" etag="7gfEAUrrDpxi4TlTzyb1" version="21.3.6" type="github">
  <diagram name="第 1 页" id="9Kqfr_1Xi7yAFTwyTwbF">
    <mxGraphModel dx="5665" dy="511" grid="0" gridSize="10" guides="1" tooltips="1" connect="1" arrows="1" fold="1" page="1" pageScale="1" pageWidth="2339" pageHeight="3300" math="0" shadow="0">
      <root>
        <mxCell id="0" />
        <mxCell id="1" parent="0" />
        <mxCell id="Z8QvO9sLvHwf7a_8vPLx-3" style="edgeStyle=orthogonalEdgeStyle;rounded=0;orthogonalLoop=1;jettySize=auto;html=1;exitX=1;exitY=0.5;exitDx=0;exitDy=0;exitPerimeter=0;entryX=0;entryY=0.5;entryDx=0;entryDy=0;" edge="1" parent="1" source="Z8QvO9sLvHwf7a_8vPLx-1" target="Z8QvO9sLvHwf7a_8vPLx-2">
          <mxGeometry relative="1" as="geometry" />
        </mxCell>
        <mxCell id="Z8QvO9sLvHwf7a_8vPLx-1" value="开始" style="strokeWidth=2;html=1;shape=mxgraph.flowchart.terminator;whiteSpace=wrap;fontSize=15;" vertex="1" parent="1">
          <mxGeometry x="-2409" y="610" width="98" height="60" as="geometry" />
        </mxCell>
        <mxCell id="Z8QvO9sLvHwf7a_8vPLx-7" style="edgeStyle=orthogonalEdgeStyle;rounded=0;orthogonalLoop=1;jettySize=auto;html=1;exitX=1;exitY=0.5;exitDx=0;exitDy=0;entryX=0;entryY=0.5;entryDx=0;entryDy=0;" edge="1" parent="1" source="Z8QvO9sLvHwf7a_8vPLx-2" target="Z8QvO9sLvHwf7a_8vPLx-6">
          <mxGeometry relative="1" as="geometry" />
        </mxCell>
        <mxCell id="Z8QvO9sLvHwf7a_8vPLx-2" value="进入管理端" style="rounded=0;whiteSpace=wrap;html=1;fontSize=15;" vertex="1" parent="1">
          <mxGeometry x="-2258" y="615.5" width="102" height="49" as="geometry" />
        </mxCell>
        <mxCell id="Z8QvO9sLvHwf7a_8vPLx-9" style="edgeStyle=orthogonalEdgeStyle;rounded=0;orthogonalLoop=1;jettySize=auto;html=1;exitX=1;exitY=0.5;exitDx=0;exitDy=0;entryX=0;entryY=0.5;entryDx=0;entryDy=0;entryPerimeter=0;" edge="1" parent="1" source="Z8QvO9sLvHwf7a_8vPLx-6" target="Z8QvO9sLvHwf7a_8vPLx-8">
          <mxGeometry relative="1" as="geometry" />
        </mxCell>
        <mxCell id="Z8QvO9sLvHwf7a_8vPLx-6" value="管理员登录" style="rounded=0;whiteSpace=wrap;html=1;fontSize=15;" vertex="1" parent="1">
          <mxGeometry x="-2109" y="615.5" width="102" height="49" as="geometry" />
        </mxCell>
        <mxCell id="Z8QvO9sLvHwf7a_8vPLx-11" value="是" style="edgeStyle=orthogonalEdgeStyle;rounded=0;orthogonalLoop=1;jettySize=auto;html=1;exitX=1;exitY=0.5;exitDx=0;exitDy=0;exitPerimeter=0;fontSize=15;" edge="1" parent="1" source="Z8QvO9sLvHwf7a_8vPLx-8" target="Z8QvO9sLvHwf7a_8vPLx-10">
          <mxGeometry relative="1" as="geometry">
            <Array as="points">
              <mxPoint x="-1846" y="638" />
              <mxPoint x="-1826" y="638" />
              <mxPoint x="-1826" y="636" />
            </Array>
          </mxGeometry>
        </mxCell>
        <mxCell id="Z8QvO9sLvHwf7a_8vPLx-13" value="否" style="edgeStyle=orthogonalEdgeStyle;rounded=0;orthogonalLoop=1;jettySize=auto;html=1;fontSize=15;" edge="1" parent="1" source="Z8QvO9sLvHwf7a_8vPLx-8" target="Z8QvO9sLvHwf7a_8vPLx-12">
          <mxGeometry relative="1" as="geometry" />
        </mxCell>
        <mxCell id="Z8QvO9sLvHwf7a_8vPLx-8" value="&lt;font style=&quot;font-size: 15px;&quot;&gt;是否登录成功？&lt;/font&gt;" style="strokeWidth=2;html=1;shape=mxgraph.flowchart.decision;whiteSpace=wrap;fontSize=15;" vertex="1" parent="1">
          <mxGeometry x="-1973" y="601" width="127" height="78" as="geometry" />
        </mxCell>
        <mxCell id="Z8QvO9sLvHwf7a_8vPLx-16" style="edgeStyle=orthogonalEdgeStyle;rounded=0;orthogonalLoop=1;jettySize=auto;html=1;exitX=1;exitY=0.5;exitDx=0;exitDy=0;entryX=0;entryY=0.5;entryDx=0;entryDy=0;entryPerimeter=0;" edge="1" parent="1" source="Z8QvO9sLvHwf7a_8vPLx-10" target="Z8QvO9sLvHwf7a_8vPLx-15">
          <mxGeometry relative="1" as="geometry" />
        </mxCell>
        <mxCell id="Z8QvO9sLvHwf7a_8vPLx-10" value="进入后台首页" style="rounded=0;whiteSpace=wrap;html=1;fontSize=15;" vertex="1" parent="1">
          <mxGeometry x="-1801" y="615.5" width="102" height="49" as="geometry" />
        </mxCell>
        <mxCell id="Z8QvO9sLvHwf7a_8vPLx-14" style="edgeStyle=orthogonalEdgeStyle;rounded=0;orthogonalLoop=1;jettySize=auto;html=1;exitX=0;exitY=0.5;exitDx=0;exitDy=0;" edge="1" parent="1" source="Z8QvO9sLvHwf7a_8vPLx-12" target="Z8QvO9sLvHwf7a_8vPLx-6">
          <mxGeometry relative="1" as="geometry" />
        </mxCell>
        <mxCell id="Z8QvO9sLvHwf7a_8vPLx-12" value="响应错误信息" style="rounded=0;whiteSpace=wrap;html=1;fontSize=15;" vertex="1" parent="1">
          <mxGeometry x="-1960.5" y="518" width="102" height="49" as="geometry" />
        </mxCell>
        <mxCell id="Z8QvO9sLvHwf7a_8vPLx-20" value="否" style="edgeStyle=orthogonalEdgeStyle;rounded=0;orthogonalLoop=1;jettySize=auto;html=1;exitX=0.5;exitY=0;exitDx=0;exitDy=0;exitPerimeter=0;entryX=0.5;entryY=1;entryDx=0;entryDy=0;fontSize=15;" edge="1" parent="1" source="Z8QvO9sLvHwf7a_8vPLx-15" target="Z8QvO9sLvHwf7a_8vPLx-17">
          <mxGeometry relative="1" as="geometry" />
        </mxCell>
        <mxCell id="Z8QvO9sLvHwf7a_8vPLx-30" value="是" style="edgeStyle=orthogonalEdgeStyle;rounded=0;orthogonalLoop=1;jettySize=auto;html=1;exitX=1;exitY=0.5;exitDx=0;exitDy=0;exitPerimeter=0;entryX=0;entryY=0.5;entryDx=0;entryDy=0;fontSize=15;" edge="1" parent="1" source="Z8QvO9sLvHwf7a_8vPLx-15" target="Z8QvO9sLvHwf7a_8vPLx-27">
          <mxGeometry relative="1" as="geometry" />
        </mxCell>
        <mxCell id="Z8QvO9sLvHwf7a_8vPLx-31" style="edgeStyle=orthogonalEdgeStyle;rounded=0;orthogonalLoop=1;jettySize=auto;html=1;exitX=1;exitY=0.5;exitDx=0;exitDy=0;exitPerimeter=0;entryX=0;entryY=0.75;entryDx=0;entryDy=0;" edge="1" parent="1" source="Z8QvO9sLvHwf7a_8vPLx-15" target="Z8QvO9sLvHwf7a_8vPLx-22">
          <mxGeometry relative="1" as="geometry" />
        </mxCell>
        <mxCell id="Z8QvO9sLvHwf7a_8vPLx-32" style="edgeStyle=orthogonalEdgeStyle;rounded=0;orthogonalLoop=1;jettySize=auto;html=1;exitX=1;exitY=0.5;exitDx=0;exitDy=0;exitPerimeter=0;entryX=0;entryY=0.5;entryDx=0;entryDy=0;" edge="1" parent="1" source="Z8QvO9sLvHwf7a_8vPLx-15" target="Z8QvO9sLvHwf7a_8vPLx-26">
          <mxGeometry relative="1" as="geometry" />
        </mxCell>
        <mxCell id="Z8QvO9sLvHwf7a_8vPLx-33" style="edgeStyle=orthogonalEdgeStyle;rounded=0;orthogonalLoop=1;jettySize=auto;html=1;exitX=1;exitY=0.5;exitDx=0;exitDy=0;exitPerimeter=0;entryX=0;entryY=0.5;entryDx=0;entryDy=0;" edge="1" parent="1" source="Z8QvO9sLvHwf7a_8vPLx-15" target="Z8QvO9sLvHwf7a_8vPLx-28">
          <mxGeometry relative="1" as="geometry" />
        </mxCell>
        <mxCell id="Z8QvO9sLvHwf7a_8vPLx-34" style="edgeStyle=orthogonalEdgeStyle;rounded=0;orthogonalLoop=1;jettySize=auto;html=1;exitX=1;exitY=0.5;exitDx=0;exitDy=0;exitPerimeter=0;entryX=0;entryY=0.5;entryDx=0;entryDy=0;" edge="1" parent="1" source="Z8QvO9sLvHwf7a_8vPLx-15" target="Z8QvO9sLvHwf7a_8vPLx-29">
          <mxGeometry relative="1" as="geometry" />
        </mxCell>
        <mxCell id="Z8QvO9sLvHwf7a_8vPLx-15" value="&lt;font style=&quot;font-size: 15px;&quot;&gt;有菜单权限？&lt;/font&gt;" style="strokeWidth=2;html=1;shape=mxgraph.flowchart.decision;whiteSpace=wrap;fontSize=15;" vertex="1" parent="1">
          <mxGeometry x="-1662" y="601" width="127" height="78" as="geometry" />
        </mxCell>
        <mxCell id="Z8QvO9sLvHwf7a_8vPLx-17" value="不展示对应页面" style="rounded=0;whiteSpace=wrap;html=1;fontSize=15;" vertex="1" parent="1">
          <mxGeometry x="-1654.5" y="515" width="108.5" height="47" as="geometry" />
        </mxCell>
        <mxCell id="Z8QvO9sLvHwf7a_8vPLx-41" style="edgeStyle=orthogonalEdgeStyle;rounded=0;orthogonalLoop=1;jettySize=auto;html=1;exitX=1;exitY=0.5;exitDx=0;exitDy=0;" edge="1" parent="1" source="Z8QvO9sLvHwf7a_8vPLx-22" target="Z8QvO9sLvHwf7a_8vPLx-35">
          <mxGeometry relative="1" as="geometry" />
        </mxCell>
        <mxCell id="Z8QvO9sLvHwf7a_8vPLx-22" value="展示用户管理页面" style="rounded=0;whiteSpace=wrap;html=1;fontSize=15;" vertex="1" parent="1">
          <mxGeometry x="-1474" y="495" width="125" height="47" as="geometry" />
        </mxCell>
        <mxCell id="Z8QvO9sLvHwf7a_8vPLx-42" style="edgeStyle=orthogonalEdgeStyle;rounded=0;orthogonalLoop=1;jettySize=auto;html=1;exitX=1;exitY=0.5;exitDx=0;exitDy=0;" edge="1" parent="1" source="Z8QvO9sLvHwf7a_8vPLx-26" target="Z8QvO9sLvHwf7a_8vPLx-37">
          <mxGeometry relative="1" as="geometry" />
        </mxCell>
        <mxCell id="Z8QvO9sLvHwf7a_8vPLx-26" value="展示菜品管理页面" style="rounded=0;whiteSpace=wrap;html=1;fontSize=15;" vertex="1" parent="1">
          <mxGeometry x="-1474" y="555" width="125" height="47" as="geometry" />
        </mxCell>
        <mxCell id="Z8QvO9sLvHwf7a_8vPLx-44" style="edgeStyle=orthogonalEdgeStyle;rounded=0;orthogonalLoop=1;jettySize=auto;html=1;exitX=1;exitY=0.5;exitDx=0;exitDy=0;entryX=0;entryY=0.5;entryDx=0;entryDy=0;" edge="1" parent="1" source="Z8QvO9sLvHwf7a_8vPLx-27" target="Z8QvO9sLvHwf7a_8vPLx-38">
          <mxGeometry relative="1" as="geometry" />
        </mxCell>
        <mxCell id="Z8QvO9sLvHwf7a_8vPLx-27" value="展示订单管理页面" style="rounded=0;whiteSpace=wrap;html=1;fontSize=15;" vertex="1" parent="1">
          <mxGeometry x="-1474" y="616.5" width="125" height="47" as="geometry" />
        </mxCell>
        <mxCell id="Z8QvO9sLvHwf7a_8vPLx-45" style="edgeStyle=orthogonalEdgeStyle;rounded=0;orthogonalLoop=1;jettySize=auto;html=1;exitX=1;exitY=0.5;exitDx=0;exitDy=0;entryX=0;entryY=0.5;entryDx=0;entryDy=0;" edge="1" parent="1" source="Z8QvO9sLvHwf7a_8vPLx-28" target="Z8QvO9sLvHwf7a_8vPLx-39">
          <mxGeometry relative="1" as="geometry" />
        </mxCell>
        <mxCell id="Z8QvO9sLvHwf7a_8vPLx-28" value="展示角色管理页面" style="rounded=0;whiteSpace=wrap;html=1;fontSize=15;" vertex="1" parent="1">
          <mxGeometry x="-1474" y="673" width="125" height="47" as="geometry" />
        </mxCell>
        <mxCell id="Z8QvO9sLvHwf7a_8vPLx-46" style="edgeStyle=orthogonalEdgeStyle;rounded=0;orthogonalLoop=1;jettySize=auto;html=1;exitX=1;exitY=0.5;exitDx=0;exitDy=0;entryX=0;entryY=0.5;entryDx=0;entryDy=0;" edge="1" parent="1" source="Z8QvO9sLvHwf7a_8vPLx-29" target="Z8QvO9sLvHwf7a_8vPLx-40">
          <mxGeometry relative="1" as="geometry" />
        </mxCell>
        <mxCell id="Z8QvO9sLvHwf7a_8vPLx-29" value="展示权限管理页面" style="rounded=0;whiteSpace=wrap;html=1;fontSize=15;" vertex="1" parent="1">
          <mxGeometry x="-1474" y="731" width="125" height="47" as="geometry" />
        </mxCell>
        <mxCell id="Z8QvO9sLvHwf7a_8vPLx-48" style="edgeStyle=orthogonalEdgeStyle;rounded=0;orthogonalLoop=1;jettySize=auto;html=1;exitX=1;exitY=0.5;exitDx=0;exitDy=0;entryX=0;entryY=0.5;entryDx=0;entryDy=0;entryPerimeter=0;" edge="1" parent="1" source="Z8QvO9sLvHwf7a_8vPLx-35" target="Z8QvO9sLvHwf7a_8vPLx-47">
          <mxGeometry relative="1" as="geometry" />
        </mxCell>
        <mxCell id="Z8QvO9sLvHwf7a_8vPLx-35" value="用户管理操作" style="rounded=0;whiteSpace=wrap;html=1;fontSize=15;" vertex="1" parent="1">
          <mxGeometry x="-1319" y="495" width="125" height="47" as="geometry" />
        </mxCell>
        <mxCell id="Z8QvO9sLvHwf7a_8vPLx-50" style="edgeStyle=orthogonalEdgeStyle;rounded=0;orthogonalLoop=1;jettySize=auto;html=1;exitX=1;exitY=0.5;exitDx=0;exitDy=0;entryX=0;entryY=0.5;entryDx=0;entryDy=0;entryPerimeter=0;" edge="1" parent="1" source="Z8QvO9sLvHwf7a_8vPLx-37" target="Z8QvO9sLvHwf7a_8vPLx-47">
          <mxGeometry relative="1" as="geometry" />
        </mxCell>
        <mxCell id="Z8QvO9sLvHwf7a_8vPLx-37" value="菜品管理操作" style="rounded=0;whiteSpace=wrap;html=1;fontSize=15;" vertex="1" parent="1">
          <mxGeometry x="-1319" y="554" width="125" height="47" as="geometry" />
        </mxCell>
        <mxCell id="Z8QvO9sLvHwf7a_8vPLx-51" style="edgeStyle=orthogonalEdgeStyle;rounded=0;orthogonalLoop=1;jettySize=auto;html=1;exitX=1;exitY=0.5;exitDx=0;exitDy=0;entryX=0;entryY=0.5;entryDx=0;entryDy=0;entryPerimeter=0;" edge="1" parent="1" source="Z8QvO9sLvHwf7a_8vPLx-38" target="Z8QvO9sLvHwf7a_8vPLx-47">
          <mxGeometry relative="1" as="geometry" />
        </mxCell>
        <mxCell id="Z8QvO9sLvHwf7a_8vPLx-38" value="订单管理操作" style="rounded=0;whiteSpace=wrap;html=1;fontSize=15;" vertex="1" parent="1">
          <mxGeometry x="-1318" y="615.5" width="124" height="47.5" as="geometry" />
        </mxCell>
        <mxCell id="Z8QvO9sLvHwf7a_8vPLx-52" style="edgeStyle=orthogonalEdgeStyle;rounded=0;orthogonalLoop=1;jettySize=auto;html=1;exitX=1;exitY=0.5;exitDx=0;exitDy=0;entryX=0;entryY=0.5;entryDx=0;entryDy=0;entryPerimeter=0;" edge="1" parent="1" source="Z8QvO9sLvHwf7a_8vPLx-39" target="Z8QvO9sLvHwf7a_8vPLx-47">
          <mxGeometry relative="1" as="geometry" />
        </mxCell>
        <mxCell id="Z8QvO9sLvHwf7a_8vPLx-39" value="角色管理操作" style="rounded=0;whiteSpace=wrap;html=1;fontSize=15;" vertex="1" parent="1">
          <mxGeometry x="-1319" y="673" width="125" height="47" as="geometry" />
        </mxCell>
        <mxCell id="Z8QvO9sLvHwf7a_8vPLx-53" style="edgeStyle=orthogonalEdgeStyle;rounded=0;orthogonalLoop=1;jettySize=auto;html=1;exitX=1;exitY=0.5;exitDx=0;exitDy=0;entryX=0;entryY=0.5;entryDx=0;entryDy=0;entryPerimeter=0;" edge="1" parent="1" source="Z8QvO9sLvHwf7a_8vPLx-40" target="Z8QvO9sLvHwf7a_8vPLx-47">
          <mxGeometry relative="1" as="geometry" />
        </mxCell>
        <mxCell id="Z8QvO9sLvHwf7a_8vPLx-40" value="权限管理操作" style="rounded=0;whiteSpace=wrap;html=1;fontSize=15;" vertex="1" parent="1">
          <mxGeometry x="-1318" y="731" width="125" height="47" as="geometry" />
        </mxCell>
        <mxCell id="Z8QvO9sLvHwf7a_8vPLx-47" value="结束" style="strokeWidth=2;html=1;shape=mxgraph.flowchart.terminator;whiteSpace=wrap;fontSize=15;" vertex="1" parent="1">
          <mxGeometry x="-1146" y="610" width="98" height="60" as="geometry" />
        </mxCell>
      </root>
    </mxGraphModel>
  </diagram>
</mxfile>
